<svg width="472" height="360" viewBox="0 0 472 360" fill="none" xmlns="http://www.w3.org/2000/svg">
<rect x="1" y="1" width="470" height="358" fill="#DEE2E6" stroke="#6C757D" stroke-width="2" stroke-linejoin="bevel"/>
<mask id="path-2-inside-1_4202_1488" fill="white">
<path d="M236 1H354V121H236V1Z"/>
</mask>
<path d="M354 121V121.5H354.5V121H354ZM236 121.5H237.967V120.5H236V121.5ZM241.9 121.5H245.833V120.5H241.9V121.5ZM249.767 121.5H253.7V120.5H249.767V121.5ZM257.633 121.5H261.567V120.5H257.633V121.5ZM265.5 121.5H269.433V120.5H265.5V121.5ZM273.367 121.5H277.3V120.5H273.367V121.5ZM281.233 121.5H285.167V120.5H281.233V121.5ZM289.1 121.5H293.033V120.5H289.1V121.5ZM296.967 121.5H300.9V120.5H296.967V121.5ZM304.833 121.5H308.767V120.5H304.833V121.5ZM312.7 121.5H316.633V120.5H312.7V121.5ZM320.567 121.5H324.5V120.5H320.567V121.5ZM328.433 121.5H332.367V120.5H328.433V121.5ZM336.3 121.5H340.233V120.5H336.3V121.5ZM344.167 121.5H348.1V120.5H344.167V121.5ZM352.033 121.5H354V120.5H352.033V121.5ZM354.5 121V119H353.5V121H354.5ZM354.5 115V111H353.5V115H354.5ZM354.5 107V103H353.5V107H354.5ZM354.5 99V95H353.5V99H354.5ZM354.5 91V87H353.5V91H354.5ZM354.5 83V79H353.5V83H354.5ZM354.5 75V71H353.5V75H354.5ZM354.5 67V63H353.5V67H354.5ZM354.5 59V55H353.5V59H354.5ZM354.5 51V47H353.5V51H354.5ZM354.5 43V39H353.5V43H354.5ZM354.5 35V31H353.5V35H354.5ZM354.5 27V23H353.5V27H354.5ZM354.5 19V15H353.5V19H354.5ZM354.5 11V7H353.5V11H354.5ZM354.5 3V1H353.5V3H354.5ZM354 121V122H355V121H354ZM236 122H237.967V120H236V122ZM241.9 122H245.833V120H241.9V122ZM249.767 122H253.7V120H249.767V122ZM257.633 122H261.567V120H257.633V122ZM265.5 122H269.433V120H265.5V122ZM273.367 122H277.3V120H273.367V122ZM281.233 122H285.167V120H281.233V122ZM289.1 122H293.033V120H289.1V122ZM296.967 122H300.9V120H296.967V122ZM304.833 122H308.767V120H304.833V122ZM312.7 122H316.633V120H312.7V122ZM320.567 122H324.5V120H320.567V122ZM328.433 122H332.367V120H328.433V122ZM336.3 122H340.233V120H336.3V122ZM344.167 122H348.1V120H344.167V122ZM352.033 122H354V120H352.033V122ZM355 121V119H353V121H355ZM355 115V111H353V115H355ZM355 107V103H353V107H355ZM355 99V95H353V99H355ZM355 91V87H353V91H355ZM355 83V79H353V83H355ZM355 75V71H353V75H355ZM355 67V63H353V67H355ZM355 59V55H353V59H355ZM355 51V47H353V51H355ZM355 43V39H353V43H355ZM355 35V31H353V35H355ZM355 27V23H353V27H355ZM355 19V15H353V19H355ZM355 11V7H353V11H355ZM355 3V1H353V3H355Z" fill="black" mask="url(#path-2-inside-1_4202_1488)"/>
<mask id="path-4-inside-2_4202_1488" fill="white">
<path d="M354 1H472V121H354V1Z"/>
</mask>
<path d="M354 121.5H355.967V120.5H354V121.5ZM359.9 121.5H363.833V120.5H359.9V121.5ZM367.767 121.5H371.7V120.5H367.767V121.5ZM375.633 121.5H379.567V120.5H375.633V121.5ZM383.5 121.5H387.433V120.5H383.5V121.5ZM391.367 121.5H395.3V120.5H391.367V121.5ZM399.233 121.5H403.167V120.5H399.233V121.5ZM407.1 121.5H411.033V120.5H407.1V121.5ZM414.967 121.5H418.9V120.5H414.967V121.5ZM422.833 121.5H426.767V120.5H422.833V121.5ZM430.7 121.5H434.633V120.5H430.7V121.5ZM438.567 121.5H442.5V120.5H438.567V121.5ZM446.433 121.5H450.367V120.5H446.433V121.5ZM454.3 121.5H458.233V120.5H454.3V121.5ZM462.167 121.5H466.1V120.5H462.167V121.5ZM470.033 121.5H472V120.5H470.033V121.5ZM354 122H355.967V120H354V122ZM359.9 122H363.833V120H359.9V122ZM367.767 122H371.7V120H367.767V122ZM375.633 122H379.567V120H375.633V122ZM383.5 122H387.433V120H383.5V122ZM391.367 122H395.3V120H391.367V122ZM399.233 122H403.167V120H399.233V122ZM407.1 122H411.033V120H407.1V122ZM414.967 122H418.9V120H414.967V122ZM422.833 122H426.767V120H422.833V122ZM430.7 122H434.633V120H430.7V122ZM438.567 122H442.5V120H438.567V122ZM446.433 122H450.367V120H446.433V122ZM454.3 122H458.233V120H454.3V122ZM462.167 122H466.1V120H462.167V122ZM470.033 122H472V120H470.033V122Z" fill="black" mask="url(#path-4-inside-2_4202_1488)"/>
<mask id="path-6-inside-3_4202_1488" fill="white">
<path d="M118 1H236V121H118V1Z"/>
</mask>
<path d="M236 121V121.5H236.5V121H236ZM118 121.5H119.967V120.5H118V121.5ZM123.9 121.5H127.833V120.5H123.9V121.5ZM131.767 121.5H135.7V120.5H131.767V121.5ZM139.633 121.5H143.567V120.5H139.633V121.5ZM147.5 121.5H151.433V120.5H147.5V121.5ZM155.367 121.5H159.3V120.5H155.367V121.5ZM163.233 121.5H167.167V120.5H163.233V121.5ZM171.1 121.5H175.033V120.5H171.1V121.5ZM178.967 121.5H182.9V120.5H178.967V121.5ZM186.833 121.5H190.767V120.5H186.833V121.5ZM194.7 121.5H198.633V120.5H194.7V121.5ZM202.567 121.5H206.5V120.5H202.567V121.5ZM210.433 121.5H214.367V120.5H210.433V121.5ZM218.3 121.5H222.233V120.5H218.3V121.5ZM226.167 121.5H230.1V120.5H226.167V121.5ZM234.033 121.5H236V120.5H234.033V121.5ZM236.5 121V119H235.5V121H236.5ZM236.5 115V111H235.5V115H236.5ZM236.5 107V103H235.5V107H236.5ZM236.5 99V95H235.5V99H236.5ZM236.5 91V87H235.5V91H236.5ZM236.5 83V79H235.5V83H236.5ZM236.5 75V71H235.5V75H236.5ZM236.5 67V63H235.5V67H236.5ZM236.5 59V55H235.5V59H236.5ZM236.5 51V47H235.5V51H236.5ZM236.5 43V39H235.5V43H236.5ZM236.5 35V31H235.5V35H236.5ZM236.5 27V23H235.5V27H236.5ZM236.5 19V15H235.5V19H236.5ZM236.5 11V7H235.5V11H236.5ZM236.5 3V1H235.5V3H236.5ZM236 121V122H237V121H236ZM118 122H119.967V120H118V122ZM123.9 122H127.833V120H123.9V122ZM131.767 122H135.7V120H131.767V122ZM139.633 122H143.567V120H139.633V122ZM147.5 122H151.433V120H147.5V122ZM155.367 122H159.3V120H155.367V122ZM163.233 122H167.167V120H163.233V122ZM171.1 122H175.033V120H171.1V122ZM178.967 122H182.9V120H178.967V122ZM186.833 122H190.767V120H186.833V122ZM194.7 122H198.633V120H194.7V122ZM202.567 122H206.5V120H202.567V122ZM210.433 122H214.367V120H210.433V122ZM218.3 122H222.233V120H218.3V122ZM226.167 122H230.1V120H226.167V122ZM234.033 122H236V120H234.033V122ZM237 121V119H235V121H237ZM237 115V111H235V115H237ZM237 107V103H235V107H237ZM237 99V95H235V99H237ZM237 91V87H235V91H237ZM237 83V79H235V83H237ZM237 75V71H235V75H237ZM237 67V63H235V67H237ZM237 59V55H235V59H237ZM237 51V47H235V51H237ZM237 43V39H235V43H237ZM237 35V31H235V35H237ZM237 27V23H235V27H237ZM237 19V15H235V19H237ZM237 11V7H235V11H237ZM237 3V1H235V3H237Z" fill="black" mask="url(#path-6-inside-3_4202_1488)"/>
<mask id="path-8-inside-4_4202_1488" fill="white">
<path d="M0 1H118V121H0V1Z"/>
</mask>
<path d="M118 121V121.5H118.5V121H118ZM0 121.5H1.96667V120.5H0V121.5ZM5.9 121.5H9.83333V120.5H5.9V121.5ZM13.7667 121.5H17.7V120.5H13.7667V121.5ZM21.6333 121.5H25.5667V120.5H21.6333V121.5ZM29.5 121.5H33.4333V120.5H29.5V121.5ZM37.3667 121.5H41.3V120.5H37.3667V121.5ZM45.2333 121.5H49.1667V120.5H45.2333V121.5ZM53.1 121.5H57.0333V120.5H53.1V121.5ZM60.9667 121.5H64.9V120.5H60.9667V121.5ZM68.8333 121.5H72.7667V120.5H68.8333V121.5ZM76.7 121.5H80.6333V120.5H76.7V121.5ZM84.5667 121.5H88.5V120.5H84.5667V121.5ZM92.4333 121.5H96.3667V120.5H92.4333V121.5ZM100.3 121.5H104.233V120.5H100.3V121.5ZM108.167 121.5H112.1V120.5H108.167V121.5ZM116.033 121.5H118V120.5H116.033V121.5ZM118.5 121V119H117.5V121H118.5ZM118.5 115V111H117.5V115H118.5ZM118.5 107V103H117.5V107H118.5ZM118.5 99V95H117.5V99H118.5ZM118.5 91V87H117.5V91H118.5ZM118.5 83V79H117.5V83H118.5ZM118.5 75V71H117.5V75H118.5ZM118.5 67V63H117.5V67H118.5ZM118.5 59V55H117.5V59H118.5ZM118.5 51V47H117.5V51H118.5ZM118.5 43V39H117.5V43H118.5ZM118.5 35V31H117.5V35H118.5ZM118.5 27V23H117.5V27H118.5ZM118.5 19V15H117.5V19H118.5ZM118.5 11V7H117.5V11H118.5ZM118.5 3V1H117.5V3H118.5ZM118 121V122H119V121H118ZM0 122H1.96667V120H0V122ZM5.9 122H9.83333V120H5.9V122ZM13.7667 122H17.7V120H13.7667V122ZM21.6333 122H25.5667V120H21.6333V122ZM29.5 122H33.4333V120H29.5V122ZM37.3667 122H41.3V120H37.3667V122ZM45.2333 122H49.1667V120H45.2333V122ZM53.1 122H57.0333V120H53.1V122ZM60.9667 122H64.9V120H60.9667V122ZM68.8333 122H72.7667V120H68.8333V122ZM76.7 122H80.6333V120H76.7V122ZM84.5667 122H88.5V120H84.5667V122ZM92.4333 122H96.3667V120H92.4333V122ZM100.3 122H104.233V120H100.3V122ZM108.167 122H112.1V120H108.167V122ZM116.033 122H118V120H116.033V122ZM119 121V119H117V121H119ZM119 115V111H117V115H119ZM119 107V103H117V107H119ZM119 99V95H117V99H119ZM119 91V87H117V91H119ZM119 83V79H117V83H119ZM119 75V71H117V75H119ZM119 67V63H117V67H119ZM119 59V55H117V59H119ZM119 51V47H117V51H119ZM119 43V39H117V43H119ZM119 35V31H117V35H119ZM119 27V23H117V27H119ZM119 19V15H117V19H119ZM119 11V7H117V11H119ZM119 3V1H117V3H119Z" fill="black" mask="url(#path-8-inside-4_4202_1488)"/>
<mask id="path-10-inside-5_4202_1488" fill="white">
<path d="M236 360H354V240H236V360Z"/>
</mask>
<path d="M354 240V239.5H354.5V240H354ZM236 239.5H237.967V240.5H236V239.5ZM241.9 239.5H245.833V240.5H241.9V239.5ZM249.767 239.5H253.7V240.5H249.767V239.5ZM257.633 239.5H261.567V240.5H257.633V239.5ZM265.5 239.5H269.433V240.5H265.5V239.5ZM273.367 239.5H277.3V240.5H273.367V239.5ZM281.233 239.5H285.167V240.5H281.233V239.5ZM289.1 239.5H293.033V240.5H289.1V239.5ZM296.967 239.5H300.9V240.5H296.967V239.5ZM304.833 239.5H308.767V240.5H304.833V239.5ZM312.7 239.5H316.633V240.5H312.7V239.5ZM320.567 239.5H324.5V240.5H320.567V239.5ZM328.433 239.5H332.367V240.5H328.433V239.5ZM336.3 239.5H340.233V240.5H336.3V239.5ZM344.167 239.5H348.1V240.5H344.167V239.5ZM352.033 239.5H354V240.5H352.033V239.5ZM354.5 240V242H353.5V240H354.5ZM354.5 246V250H353.5V246H354.5ZM354.5 254V258H353.5V254H354.5ZM354.5 262V266H353.5V262H354.5ZM354.5 270V274H353.5V270H354.5ZM354.5 278V282H353.5V278H354.5ZM354.5 286V290H353.5V286H354.5ZM354.5 294V298H353.5V294H354.5ZM354.5 302V306H353.5V302H354.5ZM354.5 310V314H353.5V310H354.5ZM354.5 318V322H353.5V318H354.5ZM354.5 326V330H353.5V326H354.5ZM354.5 334V338H353.5V334H354.5ZM354.5 342V346H353.5V342H354.5ZM354.5 350V354H353.5V350H354.5ZM354.5 358V360H353.5V358H354.5ZM354 240V239H355V240H354ZM236 239H237.967V241H236V239ZM241.9 239H245.833V241H241.9V239ZM249.767 239H253.7V241H249.767V239ZM257.633 239H261.567V241H257.633V239ZM265.5 239H269.433V241H265.5V239ZM273.367 239H277.3V241H273.367V239ZM281.233 239H285.167V241H281.233V239ZM289.1 239H293.033V241H289.1V239ZM296.967 239H300.9V241H296.967V239ZM304.833 239H308.767V241H304.833V239ZM312.7 239H316.633V241H312.7V239ZM320.567 239H324.5V241H320.567V239ZM328.433 239H332.367V241H328.433V239ZM336.3 239H340.233V241H336.3V239ZM344.167 239H348.1V241H344.167V239ZM352.033 239H354V241H352.033V239ZM355 240V242H353V240H355ZM355 246V250H353V246H355ZM355 254V258H353V254H355ZM355 262V266H353V262H355ZM355 270V274H353V270H355ZM355 278V282H353V278H355ZM355 286V290H353V286H355ZM355 294V298H353V294H355ZM355 302V306H353V302H355ZM355 310V314H353V310H355ZM355 318V322H353V318H355ZM355 326V330H353V326H355ZM355 334V338H353V334H355ZM355 342V346H353V342H355ZM355 350V354H353V350H355ZM355 358V360H353V358H355Z" fill="black" mask="url(#path-10-inside-5_4202_1488)"/>
<mask id="path-12-inside-6_4202_1488" fill="white">
<path d="M354 360H472V240H354V360Z"/>
</mask>
<path d="M354 239.5H355.967V240.5H354V239.5ZM359.9 239.5H363.833V240.5H359.9V239.5ZM367.767 239.5H371.7V240.5H367.767V239.5ZM375.633 239.5H379.567V240.5H375.633V239.5ZM383.5 239.5H387.433V240.5H383.5V239.5ZM391.367 239.5H395.3V240.5H391.367V239.5ZM399.233 239.5H403.167V240.5H399.233V239.5ZM407.1 239.5H411.033V240.5H407.1V239.5ZM414.967 239.5H418.9V240.5H414.967V239.5ZM422.833 239.5H426.767V240.5H422.833V239.5ZM430.7 239.5H434.633V240.5H430.7V239.5ZM438.567 239.5H442.5V240.5H438.567V239.5ZM446.433 239.5H450.367V240.5H446.433V239.5ZM454.3 239.5H458.233V240.5H454.3V239.5ZM462.167 239.5H466.1V240.5H462.167V239.5ZM470.033 239.5H472V240.5H470.033V239.5ZM354 239H355.967V241H354V239ZM359.9 239H363.833V241H359.9V239ZM367.767 239H371.7V241H367.767V239ZM375.633 239H379.567V241H375.633V239ZM383.5 239H387.433V241H383.5V239ZM391.367 239H395.3V241H391.367V239ZM399.233 239H403.167V241H399.233V239ZM407.1 239H411.033V241H407.1V239ZM414.967 239H418.9V241H414.967V239ZM422.833 239H426.767V241H422.833V239ZM430.7 239H434.633V241H430.7V239ZM438.567 239H442.5V241H438.567V239ZM446.433 239H450.367V241H446.433V239ZM454.3 239H458.233V241H454.3V239ZM462.167 239H466.1V241H462.167V239ZM470.033 239H472V241H470.033V239Z" fill="black" mask="url(#path-12-inside-6_4202_1488)"/>
<mask id="path-14-inside-7_4202_1488" fill="white">
<path d="M118 360H236V240H118V360Z"/>
</mask>
<path d="M236 240V239.5H236.5V240H236ZM118 239.5H119.967V240.5H118V239.5ZM123.9 239.5H127.833V240.5H123.9V239.5ZM131.767 239.5H135.7V240.5H131.767V239.5ZM139.633 239.5H143.567V240.5H139.633V239.5ZM147.5 239.5H151.433V240.5H147.5V239.5ZM155.367 239.5H159.3V240.5H155.367V239.5ZM163.233 239.5H167.167V240.5H163.233V239.5ZM171.1 239.5H175.033V240.5H171.1V239.5ZM178.967 239.5H182.9V240.5H178.967V239.5ZM186.833 239.5H190.767V240.5H186.833V239.5ZM194.7 239.5H198.633V240.5H194.7V239.5ZM202.567 239.5H206.5V240.5H202.567V239.5ZM210.433 239.5H214.367V240.5H210.433V239.5ZM218.3 239.5H222.233V240.5H218.3V239.5ZM226.167 239.5H230.1V240.5H226.167V239.5ZM234.033 239.5H236V240.5H234.033V239.5ZM236.5 240V242H235.5V240H236.5ZM236.5 246V250H235.5V246H236.5ZM236.5 254V258H235.5V254H236.5ZM236.5 262V266H235.5V262H236.5ZM236.5 270V274H235.5V270H236.5ZM236.5 278V282H235.5V278H236.5ZM236.5 286V290H235.5V286H236.5ZM236.5 294V298H235.5V294H236.5ZM236.5 302V306H235.5V302H236.5ZM236.5 310V314H235.5V310H236.5ZM236.5 318V322H235.5V318H236.5ZM236.5 326V330H235.5V326H236.5ZM236.5 334V338H235.5V334H236.5ZM236.5 342V346H235.5V342H236.5ZM236.5 350V354H235.5V350H236.5ZM236.5 358V360H235.5V358H236.5ZM236 240V239H237V240H236ZM118 239H119.967V241H118V239ZM123.9 239H127.833V241H123.9V239ZM131.767 239H135.7V241H131.767V239ZM139.633 239H143.567V241H139.633V239ZM147.5 239H151.433V241H147.5V239ZM155.367 239H159.3V241H155.367V239ZM163.233 239H167.167V241H163.233V239ZM171.1 239H175.033V241H171.1V239ZM178.967 239H182.9V241H178.967V239ZM186.833 239H190.767V241H186.833V239ZM194.7 239H198.633V241H194.7V239ZM202.567 239H206.5V241H202.567V239ZM210.433 239H214.367V241H210.433V239ZM218.3 239H222.233V241H218.3V239ZM226.167 239H230.1V241H226.167V239ZM234.033 239H236V241H234.033V239ZM237 240V242H235V240H237ZM237 246V250H235V246H237ZM237 254V258H235V254H237ZM237 262V266H235V262H237ZM237 270V274H235V270H237ZM237 278V282H235V278H237ZM237 286V290H235V286H237ZM237 294V298H235V294H237ZM237 302V306H235V302H237ZM237 310V314H235V310H237ZM237 318V322H235V318H237ZM237 326V330H235V326H237ZM237 334V338H235V334H237ZM237 342V346H235V342H237ZM237 350V354H235V350H237ZM237 358V360H235V358H237Z" fill="black" mask="url(#path-14-inside-7_4202_1488)"/>
<mask id="path-16-inside-8_4202_1488" fill="white">
<path d="M0 360H118V240H0V360Z"/>
</mask>
<path d="M118 240V239.5H118.5V240H118ZM0 239.5H1.96667V240.5H0V239.5ZM5.9 239.5H9.83333V240.5H5.9V239.5ZM13.7667 239.5H17.7V240.5H13.7667V239.5ZM21.6333 239.5H25.5667V240.5H21.6333V239.5ZM29.5 239.5H33.4333V240.5H29.5V239.5ZM37.3667 239.5H41.3V240.5H37.3667V239.5ZM45.2333 239.5H49.1667V240.5H45.2333V239.5ZM53.1 239.5H57.0333V240.5H53.1V239.5ZM60.9667 239.5H64.9V240.5H60.9667V239.5ZM68.8333 239.5H72.7667V240.5H68.8333V239.5ZM76.7 239.5H80.6333V240.5H76.7V239.5ZM84.5667 239.5H88.5V240.5H84.5667V239.5ZM92.4333 239.5H96.3667V240.5H92.4333V239.5ZM100.3 239.5H104.233V240.5H100.3V239.5ZM108.167 239.5H112.1V240.5H108.167V239.5ZM116.033 239.5H118V240.5H116.033V239.5ZM118.5 240V242H117.5V240H118.5ZM118.5 246V250H117.5V246H118.5ZM118.5 254V258H117.5V254H118.5ZM118.5 262V266H117.5V262H118.5ZM118.5 270V274H117.5V270H118.5ZM118.5 278V282H117.5V278H118.5ZM118.5 286V290H117.5V286H118.5ZM118.5 294V298H117.5V294H118.5ZM118.5 302V306H117.5V302H118.5ZM118.5 310V314H117.5V310H118.5ZM118.5 318V322H117.5V318H118.5ZM118.5 326V330H117.5V326H118.5ZM118.5 334V338H117.5V334H118.5ZM118.5 342V346H117.5V342H118.5ZM118.5 350V354H117.5V350H118.5ZM118.5 358V360H117.5V358H118.5ZM118 240V239H119V240H118ZM0 239H1.96667V241H0V239ZM5.9 239H9.83333V241H5.9V239ZM13.7667 239H17.7V241H13.7667V239ZM21.6333 239H25.5667V241H21.6333V239ZM29.5 239H33.4333V241H29.5V239ZM37.3667 239H41.3V241H37.3667V239ZM45.2333 239H49.1667V241H45.2333V239ZM53.1 239H57.0333V241H53.1V239ZM60.9667 239H64.9V241H60.9667V239ZM68.8333 239H72.7667V241H68.8333V239ZM76.7 239H80.6333V241H76.7V239ZM84.5667 239H88.5V241H84.5667V239ZM92.4333 239H96.3667V241H92.4333V239ZM100.3 239H104.233V241H100.3V239ZM108.167 239H112.1V241H108.167V239ZM116.033 239H118V241H116.033V239ZM119 240V242H117V240H119ZM119 246V250H117V246H119ZM119 254V258H117V254H119ZM119 262V266H117V262H119ZM119 270V274H117V270H119ZM119 278V282H117V278H119ZM119 286V290H117V286H119ZM119 294V298H117V294H119ZM119 302V306H117V302H119ZM119 310V314H117V310H119ZM119 318V322H117V318H119ZM119 326V330H117V326H119ZM119 334V338H117V334H119ZM119 342V346H117V342H119ZM119 350V354H117V350H119ZM119 358V360H117V358H119Z" fill="black" mask="url(#path-16-inside-8_4202_1488)"/>
</svg>
