<svg width="189" height="342" viewBox="0 0 189 342" fill="none" xmlns="http://www.w3.org/2000/svg">
<path d="M87.5 30V40.4189C87.5 41.3631 86.8958 42.2014 86 42.5C84.6717 42.8321 83.3076 43 81.9384 43H70.3914C69.2322 43 68.1592 42 67 42C66.8209 42 66.5548 41.9666 66.2366 41.9109C63.7743 41.4804 61.6728 39.9365 60.1382 37.9634C59.384 36.9938 58.7862 35.9121 58.3664 34.7577L58.0339 33.8433C57.3499 31.9622 57 29.9761 57 27.9746V27.8853C57 25.976 57.3283 24.0809 57.9704 22.2828L58.3707 21.162C59.11 19.0919 60.3907 17.2578 62.0794 15.8505C64.2896 14.0087 67.0756 13 69.9526 13H113.755C114.584 13 115.411 13.0633 116.231 13.1894L117.144 13.3298C119.974 13.7652 122.592 15.0918 124.617 17.1167C125.86 18.3602 126.848 19.8353 127.524 21.4586L127.576 21.5831C128.51 23.8233 128.851 26.266 128.567 28.6763L128.254 31.3384C128.086 32.7686 127.671 34.1587 127.027 35.4468C126.027 37.4453 124.508 39.1377 122.629 40.3459L122.118 40.674C119.756 42.1926 117.007 43 114.199 43H101.562C100.192 43 98.8283 42.8321 97.5 42.5C96.3246 42.2061 95.5 41.15 95.5 39.9384V39.5885C95.5 37.8828 96.8828 36.5 98.5885 36.5H102.5C103.052 36.5 103.5 36.9477 103.5 37.5C103.5 38.0523 103.948 38.5 104.5 38.5H105.5C106.605 38.5 107.5 37.6046 107.5 36.5V31.25C107.5 30.0074 106.493 29 105.25 29H104C103.448 29 103 29.4477 103 30C103 30.5523 102.552 31 102 31H97.25C96.5596 31 96 30.4404 96 29.75V29.25C96 28.8358 95.6642 28.5 95.25 28.5C94.8358 28.5 94.5 28.1642 94.5 27.75V26.5516C94.5 25.2662 95.9469 24.5129 97 25.25C98.0531 25.9871 99.5 25.2338 99.5 23.9484V22.3967C99.5 21.073 98.427 20 97.1033 20H86.6827C85.2385 20 84.1029 21.2343 84.2228 22.6734L84.2862 23.435C84.3925 24.7102 85.7017 25.5193 86.8898 25.0441C88.14 24.544 89.5 25.4647 89.5 26.8112V28C89.5 28.5523 89.0523 29 88.5 29C87.9477 29 87.5 29.4477 87.5 30Z" fill="black" stroke="black" stroke-width="2"/>
<path d="M36 57V13C30.34 11.5176 30.34 3.48239 36 2H149.5L150.573 2.44726C155.637 4.55689 154.884 11.9531 149.5 13V57L157.959 59.5847C164.224 61.4989 169.922 64.9224 174.554 69.5545L176.273 71.2733C181.864 76.8638 185.021 84.4352 185.06 92.3412L186 286.5C187.352 302.994 174.448 317.18 157.9 317.392L149.5 317.5L152 339L34.5 338L36 317.5C18.1762 317.217 3.52549 303.357 2.25544 285.576L2 282L2.47128 91.6044C2.48976 84.1377 5.29201 76.9462 10.3303 71.4356L13.0538 68.4568C16.6212 64.555 21.1563 61.6652 26.1999 60.08L36 57Z" stroke="black" stroke-width="4"/>
<path d="M149.009 317.512L36.0089 317L35 338.488L151 339L149.009 317.512Z" fill="black" stroke="#3C3C3C" stroke-width="2"/>
<rect x="45" y="322" width="20" height="11" rx="5.5" fill="white"/>
<rect x="70" y="322" width="20" height="11" rx="5.5" fill="white"/>
<rect x="95" y="322" width="20" height="11" rx="5.5" fill="white"/>
<rect x="120" y="322" width="20" height="11" rx="5.5" fill="white"/>
</svg>
