<svg viewBox="0 0 33 31" fill="none" xmlns="http://www.w3.org/2000/svg">
<path d="M2.93167 25.1429L7.50002 11.1794L12.0684 25.1429H2.93167Z" fill="#F8F9FA" stroke="#6C757D"/>
<circle cx="7.35931" cy="10.0736" r="6.85931" fill="#F8F9FA" stroke="#6C757D"/>
<path d="M22.6612 16.5345C22.9312 16.8045 23.3837 16.777 23.5925 16.4558C24.8409 14.5337 25.5037 12.2902 25.5 9.99829C25.5 7.61704 24.8 5.39829 23.5925 3.54079C23.5423 3.46648 23.4762 3.40435 23.3989 3.35897C23.3215 3.31359 23.235 3.28612 23.1457 3.27856C23.0564 3.27101 22.9665 3.28357 22.8826 3.31532C22.7988 3.34707 22.7232 3.3972 22.6612 3.46204C22.5573 3.56854 22.4926 3.70722 22.4779 3.85531C22.4631 4.0034 22.4991 4.15211 22.58 4.27704C23.6737 5.98457 24.2534 7.97054 24.25 9.99829C24.2534 12.026 23.6737 14.012 22.58 15.7195C22.415 15.9758 22.445 16.3195 22.6612 16.5345ZM19.9325 13.8058C20.215 14.0883 20.6887 14.037 20.87 13.6808C21.4504 12.5402 21.752 11.2781 21.75 9.99829C21.75 8.67329 21.4325 7.42079 20.87 6.31579C20.6887 5.95954 20.215 5.90829 19.9325 6.19079L19.9137 6.20954C19.7137 6.40954 19.6762 6.71954 19.8012 6.97329C20.2627 7.91482 20.5017 8.94975 20.5 9.99829C20.5 11.0833 20.2487 12.1108 19.8 13.0233C19.675 13.277 19.7125 13.5858 19.9137 13.787L19.9325 13.8058V13.8058ZM17.45 11.3233C17.695 11.5683 18.1 11.5708 18.275 11.2733C18.5045 10.8876 18.6255 10.4471 18.625 9.99829C18.6255 9.5495 18.5045 9.10893 18.275 8.72329C18.1 8.42579 17.695 8.42829 17.45 8.67329L16.5675 9.55579C16.5093 9.61384 16.4631 9.68281 16.4316 9.75875C16.4001 9.83468 16.3839 9.91608 16.3839 9.99829C16.3839 10.0805 16.4001 10.1619 16.4316 10.2378C16.4631 10.3138 16.5093 10.3827 16.5675 10.4408L17.4512 11.3245L17.45 11.3233Z" fill="#6C757D"/>
</svg>
